<mxfile host="app.diagrams.net" modified="2023-01-28T02:30:25.512Z" agent="5.0 (Windows NT 10.0; Win64; x64) AppleWebKit/537.36 (KHTML, like Gecko) Chrome/109.0.0.0 Safari/537.36" etag="nIVtNvWmd_Dibpce3ZJy" version="20.8.13" type="github">
  <diagram id="C5RBs43oDa-KdzZeNtuy" name="Page-1">
    <mxGraphModel dx="4279" dy="2477" grid="0" gridSize="10" guides="1" tooltips="1" connect="1" arrows="1" fold="1" page="1" pageScale="1" pageWidth="827" pageHeight="1169" background="#EEEEEE" math="0" shadow="1">
      <root>
        <mxCell id="WIyWlLk6GJQsqaUBKTNV-0" />
        <mxCell id="WIyWlLk6GJQsqaUBKTNV-1" parent="WIyWlLk6GJQsqaUBKTNV-0" />
        <mxCell id="zkfFHV4jXpPFQw0GAbJ--0" value="Usuario" style="swimlane;fontStyle=2;align=center;verticalAlign=top;childLayout=stackLayout;horizontal=1;startSize=26;horizontalStack=0;resizeParent=1;resizeLast=0;collapsible=1;marginBottom=0;rounded=1;shadow=0;strokeWidth=1;fillColor=#F5AB50;strokeColor=#909090;fontColor=#1A1A1A;" parent="WIyWlLk6GJQsqaUBKTNV-1" vertex="1">
          <mxGeometry x="-556" y="-920" width="96" height="109" as="geometry">
            <mxRectangle x="230" y="140" width="160" height="26" as="alternateBounds" />
          </mxGeometry>
        </mxCell>
        <mxCell id="zkfFHV4jXpPFQw0GAbJ--1" value="Nombre" style="text;align=left;verticalAlign=top;spacingLeft=4;spacingRight=4;overflow=hidden;rotatable=0;points=[[0,0.5],[1,0.5]];portConstraint=eastwest;fontColor=#1A1A1A;rounded=1;" parent="zkfFHV4jXpPFQw0GAbJ--0" vertex="1">
          <mxGeometry y="26" width="96" height="26" as="geometry" />
        </mxCell>
        <mxCell id="zkfFHV4jXpPFQw0GAbJ--2" value="ID" style="text;align=left;verticalAlign=top;spacingLeft=4;spacingRight=4;overflow=hidden;rotatable=0;points=[[0,0.5],[1,0.5]];portConstraint=eastwest;rounded=1;shadow=0;html=0;fontColor=#1A1A1A;" parent="zkfFHV4jXpPFQw0GAbJ--0" vertex="1">
          <mxGeometry y="52" width="96" height="26" as="geometry" />
        </mxCell>
        <mxCell id="HUb9m4NCT26hnJzrRG1a-0" value="Rol" style="text;align=left;verticalAlign=top;spacingLeft=4;spacingRight=4;overflow=hidden;rotatable=0;points=[[0,0.5],[1,0.5]];portConstraint=eastwest;rounded=1;shadow=0;html=0;fontColor=#1A1A1A;" parent="zkfFHV4jXpPFQw0GAbJ--0" vertex="1">
          <mxGeometry y="78" width="96" height="26" as="geometry" />
        </mxCell>
        <mxCell id="zkfFHV4jXpPFQw0GAbJ--6" value="Servicio" style="swimlane;fontStyle=0;align=center;verticalAlign=top;childLayout=stackLayout;horizontal=1;startSize=26;horizontalStack=0;resizeParent=1;resizeLast=0;collapsible=1;marginBottom=0;rounded=1;shadow=0;strokeWidth=1;fillColor=#F5AB50;strokeColor=#909090;fontColor=#1A1A1A;" parent="WIyWlLk6GJQsqaUBKTNV-1" vertex="1">
          <mxGeometry x="459.5" y="-227" width="160" height="138" as="geometry">
            <mxRectangle x="130" y="380" width="160" height="26" as="alternateBounds" />
          </mxGeometry>
        </mxCell>
        <mxCell id="zkfFHV4jXpPFQw0GAbJ--7" value="Tipo" style="text;align=left;verticalAlign=top;spacingLeft=4;spacingRight=4;overflow=hidden;rotatable=0;points=[[0,0.5],[1,0.5]];portConstraint=eastwest;fontColor=#1A1A1A;rounded=1;" parent="zkfFHV4jXpPFQw0GAbJ--6" vertex="1">
          <mxGeometry y="26" width="160" height="26" as="geometry" />
        </mxCell>
        <mxCell id="zkfFHV4jXpPFQw0GAbJ--8" value="Honorarios" style="text;align=left;verticalAlign=top;spacingLeft=4;spacingRight=4;overflow=hidden;rotatable=0;points=[[0,0.5],[1,0.5]];portConstraint=eastwest;rounded=1;shadow=0;html=0;fontColor=#1A1A1A;" parent="zkfFHV4jXpPFQw0GAbJ--6" vertex="1">
          <mxGeometry y="52" width="160" height="26" as="geometry" />
        </mxCell>
        <mxCell id="zkfFHV4jXpPFQw0GAbJ--13" value="Acuatico" style="swimlane;fontStyle=0;align=center;verticalAlign=top;childLayout=stackLayout;horizontal=1;startSize=26;horizontalStack=0;resizeParent=1;resizeLast=0;collapsible=1;marginBottom=0;rounded=1;shadow=0;strokeWidth=1;fillColor=#F5AB50;strokeColor=#909090;fontColor=#1A1A1A;" parent="WIyWlLk6GJQsqaUBKTNV-1" vertex="1">
          <mxGeometry x="360" y="354" width="160" height="135" as="geometry">
            <mxRectangle x="340" y="380" width="170" height="26" as="alternateBounds" />
          </mxGeometry>
        </mxCell>
        <mxCell id="pXvzxChBo4fIykmY_wk8-32" value="Tipo transporte" style="text;strokeColor=none;fillColor=none;align=left;verticalAlign=top;spacingLeft=4;spacingRight=4;overflow=hidden;rotatable=0;points=[[0,0.5],[1,0.5]];portConstraint=eastwest;rounded=1;fontColor=#1A1A1A;" parent="zkfFHV4jXpPFQw0GAbJ--13" vertex="1">
          <mxGeometry y="26" width="160" height="50" as="geometry" />
        </mxCell>
        <mxCell id="zkfFHV4jXpPFQw0GAbJ--17" value="Producto" style="swimlane;fontStyle=0;align=center;verticalAlign=top;childLayout=stackLayout;horizontal=1;startSize=26;horizontalStack=0;resizeParent=1;resizeLast=0;collapsible=1;marginBottom=0;rounded=1;shadow=0;strokeWidth=1;fillColor=#F5AB50;strokeColor=#909090;fontColor=#1A1A1A;" parent="WIyWlLk6GJQsqaUBKTNV-1" vertex="1">
          <mxGeometry x="-1603" y="-519" width="116" height="258" as="geometry">
            <mxRectangle x="550" y="140" width="160" height="26" as="alternateBounds" />
          </mxGeometry>
        </mxCell>
        <mxCell id="zkfFHV4jXpPFQw0GAbJ--18" value="Nombre" style="text;align=left;verticalAlign=top;spacingLeft=4;spacingRight=4;overflow=hidden;rotatable=0;points=[[0,0.5],[1,0.5]];portConstraint=eastwest;fontColor=#1A1A1A;rounded=1;" parent="zkfFHV4jXpPFQw0GAbJ--17" vertex="1">
          <mxGeometry y="26" width="116" height="26" as="geometry" />
        </mxCell>
        <mxCell id="zkfFHV4jXpPFQw0GAbJ--19" value="ID" style="text;align=left;verticalAlign=top;spacingLeft=4;spacingRight=4;overflow=hidden;rotatable=0;points=[[0,0.5],[1,0.5]];portConstraint=eastwest;rounded=1;shadow=0;html=0;fontColor=#1A1A1A;" parent="zkfFHV4jXpPFQw0GAbJ--17" vertex="1">
          <mxGeometry y="52" width="116" height="26" as="geometry" />
        </mxCell>
        <mxCell id="zkfFHV4jXpPFQw0GAbJ--20" value="Descripcion" style="text;align=left;verticalAlign=top;spacingLeft=4;spacingRight=4;overflow=hidden;rotatable=0;points=[[0,0.5],[1,0.5]];portConstraint=eastwest;rounded=1;shadow=0;html=0;fontColor=#1A1A1A;" parent="zkfFHV4jXpPFQw0GAbJ--17" vertex="1">
          <mxGeometry y="78" width="116" height="26" as="geometry" />
        </mxCell>
        <mxCell id="zkfFHV4jXpPFQw0GAbJ--21" value="Peso" style="text;align=left;verticalAlign=top;spacingLeft=4;spacingRight=4;overflow=hidden;rotatable=0;points=[[0,0.5],[1,0.5]];portConstraint=eastwest;rounded=1;shadow=0;html=0;fontColor=#1A1A1A;" parent="zkfFHV4jXpPFQw0GAbJ--17" vertex="1">
          <mxGeometry y="104" width="116" height="26" as="geometry" />
        </mxCell>
        <mxCell id="pXvzxChBo4fIykmY_wk8-18" value="Cantidad" style="text;strokeColor=none;fillColor=none;align=left;verticalAlign=top;spacingLeft=4;spacingRight=4;overflow=hidden;rotatable=0;points=[[0,0.5],[1,0.5]];portConstraint=eastwest;rounded=1;fontColor=#1A1A1A;" parent="zkfFHV4jXpPFQw0GAbJ--17" vertex="1">
          <mxGeometry y="130" width="116" height="24" as="geometry" />
        </mxCell>
        <mxCell id="Pnj_vXacgYXX5_KnOW4d-21" value="Tipo de Producto&#xa;" style="text;align=left;verticalAlign=top;spacingLeft=4;spacingRight=4;overflow=hidden;rotatable=0;points=[[0,0.5],[1,0.5]];portConstraint=eastwest;rounded=1;shadow=0;html=0;fontColor=#1A1A1A;" parent="zkfFHV4jXpPFQw0GAbJ--17" vertex="1">
          <mxGeometry y="154" width="116" height="26" as="geometry" />
        </mxCell>
        <mxCell id="REdypmDglDxDfcD0SY29-49" value="Precio total" style="text;align=left;verticalAlign=top;spacingLeft=4;spacingRight=4;overflow=hidden;rotatable=0;points=[[0,0.5],[1,0.5]];portConstraint=eastwest;rounded=1;shadow=0;html=0;fontColor=#1A1A1A;" parent="zkfFHV4jXpPFQw0GAbJ--17" vertex="1">
          <mxGeometry y="180" width="116" height="26" as="geometry" />
        </mxCell>
        <mxCell id="pXvzxChBo4fIykmY_wk8-12" value="Transporte" style="swimlane;fontStyle=0;align=center;verticalAlign=top;childLayout=stackLayout;horizontal=1;startSize=26;horizontalStack=0;resizeParent=1;resizeLast=0;collapsible=1;marginBottom=0;rounded=1;shadow=0;strokeWidth=1;fillColor=#F5AB50;strokeColor=#909090;fontColor=#1A1A1A;" parent="WIyWlLk6GJQsqaUBKTNV-1" vertex="1">
          <mxGeometry x="346" y="15" width="183" height="147" as="geometry">
            <mxRectangle x="550" y="140" width="160" height="26" as="alternateBounds" />
          </mxGeometry>
        </mxCell>
        <mxCell id="pXvzxChBo4fIykmY_wk8-20" value="Precio por peso&#xa;&#xa;Tipo transporte" style="text;strokeColor=none;fillColor=none;align=left;verticalAlign=top;spacingLeft=4;spacingRight=4;overflow=hidden;rotatable=0;points=[[0,0.5],[1,0.5]];portConstraint=eastwest;rounded=1;fontColor=#1A1A1A;" parent="pXvzxChBo4fIykmY_wk8-12" vertex="1">
          <mxGeometry y="26" width="183" height="65" as="geometry" />
        </mxCell>
        <mxCell id="qtvmxVoFtMcfJuj8J22V-6" value="Aereo" style="swimlane;fontStyle=0;align=center;verticalAlign=top;childLayout=stackLayout;horizontal=1;startSize=26;horizontalStack=0;resizeParent=1;resizeLast=0;collapsible=1;marginBottom=0;rounded=1;shadow=0;strokeWidth=1;fillColor=#F5AB50;strokeColor=#909090;fontColor=#1A1A1A;" parent="WIyWlLk6GJQsqaUBKTNV-1" vertex="1">
          <mxGeometry x="171" y="357.5" width="160" height="128" as="geometry">
            <mxRectangle x="340" y="380" width="170" height="26" as="alternateBounds" />
          </mxGeometry>
        </mxCell>
        <mxCell id="qtvmxVoFtMcfJuj8J22V-7" value="Tipo transporte" style="text;strokeColor=none;fillColor=none;align=left;verticalAlign=top;spacingLeft=4;spacingRight=4;overflow=hidden;rotatable=0;points=[[0,0.5],[1,0.5]];portConstraint=eastwest;rounded=1;fontColor=#1A1A1A;" parent="qtvmxVoFtMcfJuj8J22V-6" vertex="1">
          <mxGeometry y="26" width="160" height="43" as="geometry" />
        </mxCell>
        <mxCell id="qtvmxVoFtMcfJuj8J22V-10" value="Terrestre" style="swimlane;fontStyle=0;align=center;verticalAlign=top;childLayout=stackLayout;horizontal=1;startSize=26;horizontalStack=0;resizeParent=1;resizeLast=0;collapsible=1;marginBottom=0;rounded=1;shadow=0;strokeWidth=1;fillColor=#F5AB50;strokeColor=#909090;fontColor=#1A1A1A;" parent="WIyWlLk6GJQsqaUBKTNV-1" vertex="1">
          <mxGeometry x="551" y="354" width="160" height="135" as="geometry">
            <mxRectangle x="340" y="380" width="170" height="26" as="alternateBounds" />
          </mxGeometry>
        </mxCell>
        <mxCell id="qtvmxVoFtMcfJuj8J22V-11" value="Tipo transporte" style="text;strokeColor=none;fillColor=none;align=left;verticalAlign=top;spacingLeft=4;spacingRight=4;overflow=hidden;rotatable=0;points=[[0,0.5],[1,0.5]];portConstraint=eastwest;rounded=1;fontColor=#1A1A1A;" parent="qtvmxVoFtMcfJuj8J22V-10" vertex="1">
          <mxGeometry y="26" width="160" height="50" as="geometry" />
        </mxCell>
        <mxCell id="REdypmDglDxDfcD0SY29-11" style="edgeStyle=none;rounded=0;orthogonalLoop=1;jettySize=auto;html=1;exitX=0.5;exitY=0;exitDx=0;exitDy=0;entryX=0.25;entryY=1;entryDx=0;entryDy=0;strokeColor=#182E3E;fontColor=#1A1A1A;labelBackgroundColor=#EEEEEE;" parent="WIyWlLk6GJQsqaUBKTNV-1" source="qtvmxVoFtMcfJuj8J22V-23" target="zkfFHV4jXpPFQw0GAbJ--0" edge="1">
          <mxGeometry relative="1" as="geometry" />
        </mxCell>
        <mxCell id="qtvmxVoFtMcfJuj8J22V-23" value="Despachante" style="swimlane;fontStyle=0;align=center;verticalAlign=top;childLayout=stackLayout;horizontal=1;startSize=26;horizontalStack=0;resizeParent=1;resizeLast=0;collapsible=1;marginBottom=0;rounded=1;shadow=0;strokeWidth=1;fillColor=#F5AB50;strokeColor=#909090;fontColor=#1A1A1A;" parent="WIyWlLk6GJQsqaUBKTNV-1" vertex="1">
          <mxGeometry x="-719" y="-407" width="160" height="118" as="geometry">
            <mxRectangle x="-504" y="483" width="160" height="26" as="alternateBounds" />
          </mxGeometry>
        </mxCell>
        <mxCell id="REdypmDglDxDfcD0SY29-51" value="Nombre&#xa;id&#xa;Rol" style="text;align=left;verticalAlign=top;spacingLeft=4;spacingRight=4;overflow=hidden;rotatable=0;points=[[0,0.5],[1,0.5]];portConstraint=eastwest;fontColor=#1A1A1A;rounded=1;" parent="qtvmxVoFtMcfJuj8J22V-23" vertex="1">
          <mxGeometry y="26" width="160" height="68" as="geometry" />
        </mxCell>
        <mxCell id="REdypmDglDxDfcD0SY29-14" style="edgeStyle=none;rounded=0;orthogonalLoop=1;jettySize=auto;html=1;exitX=0.5;exitY=0;exitDx=0;exitDy=0;entryX=0.5;entryY=1;entryDx=0;entryDy=0;strokeColor=#182E3E;fontColor=#1A1A1A;labelBackgroundColor=#EEEEEE;" parent="WIyWlLk6GJQsqaUBKTNV-1" source="qtvmxVoFtMcfJuj8J22V-28" target="zkfFHV4jXpPFQw0GAbJ--0" edge="1">
          <mxGeometry relative="1" as="geometry">
            <mxPoint x="-504.64912280701765" y="-9" as="targetPoint" />
          </mxGeometry>
        </mxCell>
        <mxCell id="qtvmxVoFtMcfJuj8J22V-28" value="Agente de transporte" style="swimlane;fontStyle=0;align=center;verticalAlign=top;childLayout=stackLayout;horizontal=1;startSize=26;horizontalStack=0;resizeParent=1;resizeLast=0;collapsible=1;marginBottom=0;rounded=1;shadow=0;strokeWidth=1;fillColor=#F5AB50;strokeColor=#909090;fontColor=#1A1A1A;" parent="WIyWlLk6GJQsqaUBKTNV-1" vertex="1">
          <mxGeometry x="-445" y="-413" width="160" height="120" as="geometry">
            <mxRectangle x="130" y="380" width="160" height="26" as="alternateBounds" />
          </mxGeometry>
        </mxCell>
        <mxCell id="REdypmDglDxDfcD0SY29-50" value="Nombre&#xa;id&#xa;Rol" style="text;align=left;verticalAlign=top;spacingLeft=4;spacingRight=4;overflow=hidden;rotatable=0;points=[[0,0.5],[1,0.5]];portConstraint=eastwest;fontColor=#1A1A1A;rounded=1;" parent="qtvmxVoFtMcfJuj8J22V-28" vertex="1">
          <mxGeometry y="26" width="160" height="75" as="geometry" />
        </mxCell>
        <mxCell id="REdypmDglDxDfcD0SY29-17" style="edgeStyle=none;rounded=0;orthogonalLoop=1;jettySize=auto;html=1;exitX=0.5;exitY=0;exitDx=0;exitDy=0;entryX=0.75;entryY=1;entryDx=0;entryDy=0;strokeColor=#182E3E;fontColor=#1A1A1A;labelBackgroundColor=#EEEEEE;" parent="WIyWlLk6GJQsqaUBKTNV-1" source="qtvmxVoFtMcfJuj8J22V-33" target="zkfFHV4jXpPFQw0GAbJ--0" edge="1">
          <mxGeometry relative="1" as="geometry">
            <mxPoint x="-464" y="-20" as="targetPoint" />
          </mxGeometry>
        </mxCell>
        <mxCell id="qtvmxVoFtMcfJuj8J22V-33" value="Auditor" style="swimlane;fontStyle=0;align=center;verticalAlign=top;childLayout=stackLayout;horizontal=1;startSize=26;horizontalStack=0;resizeParent=1;resizeLast=0;collapsible=1;marginBottom=0;rounded=1;shadow=0;strokeWidth=1;fillColor=#F5AB50;strokeColor=#909090;fontColor=#1A1A1A;" parent="WIyWlLk6GJQsqaUBKTNV-1" vertex="1">
          <mxGeometry x="-172" y="-416" width="172" height="123" as="geometry">
            <mxRectangle x="130" y="380" width="160" height="26" as="alternateBounds" />
          </mxGeometry>
        </mxCell>
        <mxCell id="qtvmxVoFtMcfJuj8J22V-34" value="Nombre&#xa;id" style="text;align=left;verticalAlign=top;spacingLeft=4;spacingRight=4;overflow=hidden;rotatable=0;points=[[0,0.5],[1,0.5]];portConstraint=eastwest;fontColor=#1A1A1A;rounded=1;" parent="qtvmxVoFtMcfJuj8J22V-33" vertex="1">
          <mxGeometry y="26" width="172" height="49" as="geometry" />
        </mxCell>
        <mxCell id="HUb9m4NCT26hnJzrRG1a-3" value="Rol" style="text;align=left;verticalAlign=top;spacingLeft=4;spacingRight=4;overflow=hidden;rotatable=0;points=[[0,0.5],[1,0.5]];portConstraint=eastwest;rounded=1;shadow=0;html=0;fontColor=#1A1A1A;" parent="qtvmxVoFtMcfJuj8J22V-33" vertex="1">
          <mxGeometry y="75" width="172" height="26" as="geometry" />
        </mxCell>
        <mxCell id="qtvmxVoFtMcfJuj8J22V-38" value="Almacenamiento" style="swimlane;fontStyle=0;align=center;verticalAlign=top;childLayout=stackLayout;horizontal=1;startSize=26;horizontalStack=0;resizeParent=1;resizeLast=0;collapsible=1;marginBottom=0;rounded=1;shadow=0;strokeWidth=1;fillColor=#F5AB50;strokeColor=#909090;fontColor=#1A1A1A;" parent="WIyWlLk6GJQsqaUBKTNV-1" vertex="1">
          <mxGeometry x="588" y="21" width="160" height="141" as="geometry">
            <mxRectangle x="130" y="380" width="160" height="26" as="alternateBounds" />
          </mxGeometry>
        </mxCell>
        <mxCell id="qtvmxVoFtMcfJuj8J22V-39" value="Tipo" style="text;align=left;verticalAlign=top;spacingLeft=4;spacingRight=4;overflow=hidden;rotatable=0;points=[[0,0.5],[1,0.5]];portConstraint=eastwest;fontColor=#1A1A1A;rounded=1;" parent="qtvmxVoFtMcfJuj8J22V-38" vertex="1">
          <mxGeometry y="26" width="160" height="26" as="geometry" />
        </mxCell>
        <mxCell id="qtvmxVoFtMcfJuj8J22V-40" value="Honorarios" style="text;align=left;verticalAlign=top;spacingLeft=4;spacingRight=4;overflow=hidden;rotatable=0;points=[[0,0.5],[1,0.5]];portConstraint=eastwest;rounded=1;shadow=0;html=0;fontColor=#1A1A1A;" parent="qtvmxVoFtMcfJuj8J22V-38" vertex="1">
          <mxGeometry y="52" width="160" height="26" as="geometry" />
        </mxCell>
        <mxCell id="REdypmDglDxDfcD0SY29-3" style="rounded=0;orthogonalLoop=1;jettySize=auto;html=1;exitX=0.5;exitY=0;exitDx=0;exitDy=0;entryX=0;entryY=1;entryDx=0;entryDy=0;strokeColor=#182E3E;fontColor=#1A1A1A;labelBackgroundColor=#EEEEEE;" parent="WIyWlLk6GJQsqaUBKTNV-1" source="qtvmxVoFtMcfJuj8J22V-55" target="zkfFHV4jXpPFQw0GAbJ--0" edge="1">
          <mxGeometry relative="1" as="geometry">
            <mxPoint x="-554" y="-44" as="targetPoint" />
          </mxGeometry>
        </mxCell>
        <mxCell id="qtvmxVoFtMcfJuj8J22V-55" value="Administrador" style="swimlane;fontStyle=0;align=center;verticalAlign=top;childLayout=stackLayout;horizontal=1;startSize=26;horizontalStack=0;resizeParent=1;resizeLast=0;collapsible=1;marginBottom=0;rounded=1;shadow=0;strokeWidth=1;fillColor=#F5AB50;strokeColor=#909090;fontColor=#1A1A1A;" parent="WIyWlLk6GJQsqaUBKTNV-1" vertex="1">
          <mxGeometry x="-987" y="-407" width="160" height="140" as="geometry">
            <mxRectangle x="130" y="380" width="160" height="26" as="alternateBounds" />
          </mxGeometry>
        </mxCell>
        <mxCell id="REdypmDglDxDfcD0SY29-23" style="edgeStyle=none;rounded=0;orthogonalLoop=1;jettySize=auto;html=1;exitX=0;exitY=0.5;exitDx=0;exitDy=0;strokeColor=#182E3E;fontColor=#1A1A1A;labelBackgroundColor=#EEEEEE;" parent="qtvmxVoFtMcfJuj8J22V-55" edge="1">
          <mxGeometry relative="1" as="geometry">
            <mxPoint x="1.1368683772161603e-13" y="41" as="sourcePoint" />
            <mxPoint x="1.1368683772161603e-13" y="41" as="targetPoint" />
          </mxGeometry>
        </mxCell>
        <mxCell id="REdypmDglDxDfcD0SY29-52" value="Nombre&#xa;id" style="text;align=left;verticalAlign=top;spacingLeft=4;spacingRight=4;overflow=hidden;rotatable=0;points=[[0,0.5],[1,0.5]];portConstraint=eastwest;fontColor=#1A1A1A;rounded=1;" parent="qtvmxVoFtMcfJuj8J22V-55" vertex="1">
          <mxGeometry y="26" width="160" height="49" as="geometry" />
        </mxCell>
        <mxCell id="HUb9m4NCT26hnJzrRG1a-2" value="Rol" style="text;align=left;verticalAlign=top;spacingLeft=4;spacingRight=4;overflow=hidden;rotatable=0;points=[[0,0.5],[1,0.5]];portConstraint=eastwest;rounded=1;shadow=0;html=0;fontColor=#1A1A1A;" parent="qtvmxVoFtMcfJuj8J22V-55" vertex="1">
          <mxGeometry y="75" width="160" height="26" as="geometry" />
        </mxCell>
        <mxCell id="Pnj_vXacgYXX5_KnOW4d-3" value="Impuesto" style="swimlane;fontStyle=0;align=center;verticalAlign=top;childLayout=stackLayout;horizontal=1;startSize=26;horizontalStack=0;resizeParent=1;resizeLast=0;collapsible=1;marginBottom=0;rounded=1;shadow=0;strokeWidth=1;fillColor=#F5AB50;strokeColor=#909090;fontColor=#1A1A1A;" parent="WIyWlLk6GJQsqaUBKTNV-1" vertex="1">
          <mxGeometry x="-1609" y="-799" width="160" height="138" as="geometry">
            <mxRectangle x="130" y="380" width="160" height="26" as="alternateBounds" />
          </mxGeometry>
        </mxCell>
        <mxCell id="Pnj_vXacgYXX5_KnOW4d-4" value="Nombre del Impuesto" style="text;align=left;verticalAlign=top;spacingLeft=4;spacingRight=4;overflow=hidden;rotatable=0;points=[[0,0.5],[1,0.5]];portConstraint=eastwest;fontColor=#1A1A1A;rounded=1;" parent="Pnj_vXacgYXX5_KnOW4d-3" vertex="1">
          <mxGeometry y="26" width="160" height="26" as="geometry" />
        </mxCell>
        <mxCell id="Pnj_vXacgYXX5_KnOW4d-5" value="Tipo de Producto" style="text;align=left;verticalAlign=top;spacingLeft=4;spacingRight=4;overflow=hidden;rotatable=0;points=[[0,0.5],[1,0.5]];portConstraint=eastwest;rounded=1;shadow=0;html=0;fontColor=#1A1A1A;" parent="Pnj_vXacgYXX5_KnOW4d-3" vertex="1">
          <mxGeometry y="52" width="160" height="26" as="geometry" />
        </mxCell>
        <mxCell id="Pnj_vXacgYXX5_KnOW4d-8" value="Porcentaje a cobrar" style="text;align=left;verticalAlign=top;spacingLeft=4;spacingRight=4;overflow=hidden;rotatable=0;points=[[0,0.5],[1,0.5]];portConstraint=eastwest;fontColor=#1A1A1A;rounded=1;" parent="Pnj_vXacgYXX5_KnOW4d-3" vertex="1">
          <mxGeometry y="78" width="160" height="26" as="geometry" />
        </mxCell>
        <mxCell id="REdypmDglDxDfcD0SY29-32" style="edgeStyle=none;rounded=0;orthogonalLoop=1;jettySize=auto;html=1;exitX=0.5;exitY=0;exitDx=0;exitDy=0;strokeColor=#182E3E;fontColor=#1A1A1A;labelBackgroundColor=#EEEEEE;entryX=0.75;entryY=1;entryDx=0;entryDy=0;" parent="WIyWlLk6GJQsqaUBKTNV-1" edge="1" target="zkfFHV4jXpPFQw0GAbJ--6" source="qtvmxVoFtMcfJuj8J22V-38">
          <mxGeometry relative="1" as="geometry">
            <mxPoint x="520" y="54" as="sourcePoint" />
            <mxPoint x="675.77" y="-91" as="targetPoint" />
          </mxGeometry>
        </mxCell>
        <mxCell id="REdypmDglDxDfcD0SY29-33" style="edgeStyle=none;rounded=0;orthogonalLoop=1;jettySize=auto;html=1;entryX=0.25;entryY=1;entryDx=0;entryDy=0;strokeColor=#182E3E;fontColor=#1A1A1A;labelBackgroundColor=#EEEEEE;exitX=0.5;exitY=0;exitDx=0;exitDy=0;" parent="WIyWlLk6GJQsqaUBKTNV-1" target="zkfFHV4jXpPFQw0GAbJ--6" edge="1" source="pXvzxChBo4fIykmY_wk8-12">
          <mxGeometry relative="1" as="geometry">
            <mxPoint x="544" y="65" as="sourcePoint" />
            <mxPoint x="405" y="-73" as="targetPoint" />
          </mxGeometry>
        </mxCell>
        <mxCell id="REdypmDglDxDfcD0SY29-34" style="edgeStyle=none;rounded=0;orthogonalLoop=1;jettySize=auto;html=1;entryX=0;entryY=1;entryDx=0;entryDy=0;strokeColor=#182E3E;fontColor=#1A1A1A;labelBackgroundColor=#EEEEEE;exitX=0.5;exitY=0;exitDx=0;exitDy=0;" parent="WIyWlLk6GJQsqaUBKTNV-1" target="pXvzxChBo4fIykmY_wk8-12" edge="1" source="qtvmxVoFtMcfJuj8J22V-6">
          <mxGeometry relative="1" as="geometry">
            <mxPoint x="338" y="360" as="sourcePoint" />
            <mxPoint x="346" y="177" as="targetPoint" />
          </mxGeometry>
        </mxCell>
        <mxCell id="REdypmDglDxDfcD0SY29-35" style="edgeStyle=none;rounded=0;orthogonalLoop=1;jettySize=auto;html=1;entryX=0.5;entryY=1;entryDx=0;entryDy=0;exitX=0.5;exitY=0;exitDx=0;exitDy=0;strokeColor=#182E3E;fontColor=#1A1A1A;labelBackgroundColor=#EEEEEE;" parent="WIyWlLk6GJQsqaUBKTNV-1" source="zkfFHV4jXpPFQw0GAbJ--13" target="pXvzxChBo4fIykmY_wk8-12" edge="1">
          <mxGeometry relative="1" as="geometry">
            <mxPoint x="348" y="370" as="sourcePoint" />
            <mxPoint x="429.9970000000003" y="190.67599999999993" as="targetPoint" />
          </mxGeometry>
        </mxCell>
        <mxCell id="REdypmDglDxDfcD0SY29-56" style="edgeStyle=none;rounded=0;orthogonalLoop=1;jettySize=auto;html=1;entryX=1;entryY=1;entryDx=0;entryDy=0;strokeColor=#182E3E;fontColor=#1A1A1A;labelBackgroundColor=#EEEEEE;exitX=0.5;exitY=0;exitDx=0;exitDy=0;" parent="WIyWlLk6GJQsqaUBKTNV-1" target="pXvzxChBo4fIykmY_wk8-12" edge="1" source="qtvmxVoFtMcfJuj8J22V-10">
          <mxGeometry relative="1" as="geometry">
            <mxPoint x="681" y="358" as="sourcePoint" />
            <mxPoint x="529" y="177" as="targetPoint" />
          </mxGeometry>
        </mxCell>
        <mxCell id="2DYvkXwkTkWKOow9lD2d-0" value="Organizacion" style="swimlane;fontStyle=0;align=center;verticalAlign=top;childLayout=stackLayout;horizontal=1;startSize=26;horizontalStack=0;resizeParent=1;resizeLast=0;collapsible=1;marginBottom=0;rounded=1;shadow=0;strokeWidth=1;fillColor=#F5AB50;strokeColor=#909090;fontColor=#1A1A1A;" parent="WIyWlLk6GJQsqaUBKTNV-1" vertex="1">
          <mxGeometry x="428" y="-913" width="160" height="164" as="geometry">
            <mxRectangle x="130" y="380" width="160" height="26" as="alternateBounds" />
          </mxGeometry>
        </mxCell>
        <mxCell id="2DYvkXwkTkWKOow9lD2d-1" value="Nombre del Organizacion" style="text;align=left;verticalAlign=top;spacingLeft=4;spacingRight=4;overflow=hidden;rotatable=0;points=[[0,0.5],[1,0.5]];portConstraint=eastwest;fontColor=#1A1A1A;rounded=1;" parent="2DYvkXwkTkWKOow9lD2d-0" vertex="1">
          <mxGeometry y="26" width="160" height="26" as="geometry" />
        </mxCell>
        <mxCell id="2DYvkXwkTkWKOow9lD2d-2" value="Direccion" style="text;align=left;verticalAlign=top;spacingLeft=4;spacingRight=4;overflow=hidden;rotatable=0;points=[[0,0.5],[1,0.5]];portConstraint=eastwest;rounded=1;shadow=0;html=0;fontColor=#1A1A1A;" parent="2DYvkXwkTkWKOow9lD2d-0" vertex="1">
          <mxGeometry y="52" width="160" height="26" as="geometry" />
        </mxCell>
        <mxCell id="2DYvkXwkTkWKOow9lD2d-3" value="Telefono" style="text;align=left;verticalAlign=top;spacingLeft=4;spacingRight=4;overflow=hidden;rotatable=0;points=[[0,0.5],[1,0.5]];portConstraint=eastwest;fontColor=#1A1A1A;rounded=1;" parent="2DYvkXwkTkWKOow9lD2d-0" vertex="1">
          <mxGeometry y="78" width="160" height="26" as="geometry" />
        </mxCell>
        <mxCell id="2DYvkXwkTkWKOow9lD2d-6" value="id_organizacion" style="text;align=left;verticalAlign=top;spacingLeft=4;spacingRight=4;overflow=hidden;rotatable=0;points=[[0,0.5],[1,0.5]];portConstraint=eastwest;fontColor=#1A1A1A;rounded=1;" parent="2DYvkXwkTkWKOow9lD2d-0" vertex="1">
          <mxGeometry y="104" width="160" height="26" as="geometry" />
        </mxCell>
        <mxCell id="rWwStxESITLfcgc23Q9w-24" value="tipo" style="text;align=left;verticalAlign=top;spacingLeft=4;spacingRight=4;overflow=hidden;rotatable=0;points=[[0,0.5],[1,0.5]];portConstraint=eastwest;fontColor=#1A1A1A;rounded=1;" vertex="1" parent="2DYvkXwkTkWKOow9lD2d-0">
          <mxGeometry y="130" width="160" height="26" as="geometry" />
        </mxCell>
        <mxCell id="rWwStxESITLfcgc23Q9w-0" value="" style="endArrow=classic;html=1;rounded=0;entryX=0.25;entryY=1;entryDx=0;entryDy=0;exitX=0.5;exitY=0;exitDx=0;exitDy=0;" edge="1" parent="WIyWlLk6GJQsqaUBKTNV-1" source="rWwStxESITLfcgc23Q9w-1" target="2DYvkXwkTkWKOow9lD2d-0">
          <mxGeometry width="50" height="50" relative="1" as="geometry">
            <mxPoint x="466" y="-641" as="sourcePoint" />
            <mxPoint x="476" y="-747" as="targetPoint" />
          </mxGeometry>
        </mxCell>
        <mxCell id="rWwStxESITLfcgc23Q9w-1" value="Agencia de transportes" style="swimlane;fontStyle=0;align=center;verticalAlign=top;childLayout=stackLayout;horizontal=1;startSize=26;horizontalStack=0;resizeParent=1;resizeLast=0;collapsible=1;marginBottom=0;rounded=1;shadow=0;strokeWidth=1;fillColor=#F5AB50;strokeColor=#909090;fontColor=#1A1A1A;" vertex="1" parent="WIyWlLk6GJQsqaUBKTNV-1">
          <mxGeometry x="346" y="-640" width="160" height="164" as="geometry">
            <mxRectangle x="130" y="380" width="160" height="26" as="alternateBounds" />
          </mxGeometry>
        </mxCell>
        <mxCell id="rWwStxESITLfcgc23Q9w-2" value="Nombre de la Organizacion" style="text;align=left;verticalAlign=top;spacingLeft=4;spacingRight=4;overflow=hidden;rotatable=0;points=[[0,0.5],[1,0.5]];portConstraint=eastwest;fontColor=#1A1A1A;rounded=1;" vertex="1" parent="rWwStxESITLfcgc23Q9w-1">
          <mxGeometry y="26" width="160" height="26" as="geometry" />
        </mxCell>
        <mxCell id="rWwStxESITLfcgc23Q9w-3" value="Direccion" style="text;align=left;verticalAlign=top;spacingLeft=4;spacingRight=4;overflow=hidden;rotatable=0;points=[[0,0.5],[1,0.5]];portConstraint=eastwest;rounded=1;shadow=0;html=0;fontColor=#1A1A1A;" vertex="1" parent="rWwStxESITLfcgc23Q9w-1">
          <mxGeometry y="52" width="160" height="26" as="geometry" />
        </mxCell>
        <mxCell id="rWwStxESITLfcgc23Q9w-4" value="Telefono" style="text;align=left;verticalAlign=top;spacingLeft=4;spacingRight=4;overflow=hidden;rotatable=0;points=[[0,0.5],[1,0.5]];portConstraint=eastwest;fontColor=#1A1A1A;rounded=1;" vertex="1" parent="rWwStxESITLfcgc23Q9w-1">
          <mxGeometry y="78" width="160" height="26" as="geometry" />
        </mxCell>
        <mxCell id="rWwStxESITLfcgc23Q9w-5" value="id_organizacion" style="text;align=left;verticalAlign=top;spacingLeft=4;spacingRight=4;overflow=hidden;rotatable=0;points=[[0,0.5],[1,0.5]];portConstraint=eastwest;fontColor=#1A1A1A;rounded=1;" vertex="1" parent="rWwStxESITLfcgc23Q9w-1">
          <mxGeometry y="104" width="160" height="26" as="geometry" />
        </mxCell>
        <mxCell id="rWwStxESITLfcgc23Q9w-31" value="tipo:TR" style="text;align=left;verticalAlign=top;spacingLeft=4;spacingRight=4;overflow=hidden;rotatable=0;points=[[0,0.5],[1,0.5]];portConstraint=eastwest;fontColor=#1A1A1A;rounded=1;" vertex="1" parent="rWwStxESITLfcgc23Q9w-1">
          <mxGeometry y="130" width="160" height="26" as="geometry" />
        </mxCell>
        <mxCell id="rWwStxESITLfcgc23Q9w-6" value="" style="endArrow=classic;html=1;rounded=0;entryX=0.5;entryY=1;entryDx=0;entryDy=0;exitX=0.25;exitY=0;exitDx=0;exitDy=0;" edge="1" parent="WIyWlLk6GJQsqaUBKTNV-1" source="zkfFHV4jXpPFQw0GAbJ--6" target="rWwStxESITLfcgc23Q9w-1">
          <mxGeometry width="50" height="50" relative="1" as="geometry">
            <mxPoint x="430" y="-343" as="sourcePoint" />
            <mxPoint x="480" y="-393" as="targetPoint" />
          </mxGeometry>
        </mxCell>
        <mxCell id="rWwStxESITLfcgc23Q9w-7" value="Agencia de despachantes" style="swimlane;fontStyle=0;align=center;verticalAlign=top;childLayout=stackLayout;horizontal=1;startSize=26;horizontalStack=0;resizeParent=1;resizeLast=0;collapsible=1;marginBottom=0;rounded=1;shadow=0;strokeWidth=1;fillColor=#F5AB50;strokeColor=#909090;fontColor=#1A1A1A;" vertex="1" parent="WIyWlLk6GJQsqaUBKTNV-1">
          <mxGeometry x="551" y="-640" width="160" height="164" as="geometry">
            <mxRectangle x="130" y="380" width="160" height="26" as="alternateBounds" />
          </mxGeometry>
        </mxCell>
        <mxCell id="rWwStxESITLfcgc23Q9w-8" value="Nombre de la Organizacion" style="text;align=left;verticalAlign=top;spacingLeft=4;spacingRight=4;overflow=hidden;rotatable=0;points=[[0,0.5],[1,0.5]];portConstraint=eastwest;fontColor=#1A1A1A;rounded=1;" vertex="1" parent="rWwStxESITLfcgc23Q9w-7">
          <mxGeometry y="26" width="160" height="26" as="geometry" />
        </mxCell>
        <mxCell id="rWwStxESITLfcgc23Q9w-9" value="Direccion" style="text;align=left;verticalAlign=top;spacingLeft=4;spacingRight=4;overflow=hidden;rotatable=0;points=[[0,0.5],[1,0.5]];portConstraint=eastwest;rounded=1;shadow=0;html=0;fontColor=#1A1A1A;" vertex="1" parent="rWwStxESITLfcgc23Q9w-7">
          <mxGeometry y="52" width="160" height="26" as="geometry" />
        </mxCell>
        <mxCell id="rWwStxESITLfcgc23Q9w-10" value="Telefono" style="text;align=left;verticalAlign=top;spacingLeft=4;spacingRight=4;overflow=hidden;rotatable=0;points=[[0,0.5],[1,0.5]];portConstraint=eastwest;fontColor=#1A1A1A;rounded=1;" vertex="1" parent="rWwStxESITLfcgc23Q9w-7">
          <mxGeometry y="78" width="160" height="26" as="geometry" />
        </mxCell>
        <mxCell id="rWwStxESITLfcgc23Q9w-11" value="id_organizacion" style="text;align=left;verticalAlign=top;spacingLeft=4;spacingRight=4;overflow=hidden;rotatable=0;points=[[0,0.5],[1,0.5]];portConstraint=eastwest;fontColor=#1A1A1A;rounded=1;" vertex="1" parent="rWwStxESITLfcgc23Q9w-7">
          <mxGeometry y="104" width="160" height="26" as="geometry" />
        </mxCell>
        <mxCell id="rWwStxESITLfcgc23Q9w-32" value="tipo: DE" style="text;align=left;verticalAlign=top;spacingLeft=4;spacingRight=4;overflow=hidden;rotatable=0;points=[[0,0.5],[1,0.5]];portConstraint=eastwest;fontColor=#1A1A1A;rounded=1;" vertex="1" parent="rWwStxESITLfcgc23Q9w-7">
          <mxGeometry y="130" width="160" height="26" as="geometry" />
        </mxCell>
        <mxCell id="rWwStxESITLfcgc23Q9w-12" value="Agencia de auditores" style="swimlane;fontStyle=0;align=center;verticalAlign=top;childLayout=stackLayout;horizontal=1;startSize=26;horizontalStack=0;resizeParent=1;resizeLast=0;collapsible=1;marginBottom=0;rounded=1;shadow=0;strokeWidth=1;fillColor=#F5AB50;strokeColor=#909090;fontColor=#1A1A1A;" vertex="1" parent="WIyWlLk6GJQsqaUBKTNV-1">
          <mxGeometry x="130" y="-643" width="160" height="164" as="geometry">
            <mxRectangle x="130" y="380" width="160" height="26" as="alternateBounds" />
          </mxGeometry>
        </mxCell>
        <mxCell id="rWwStxESITLfcgc23Q9w-13" value="Nombre de la Organizacion" style="text;align=left;verticalAlign=top;spacingLeft=4;spacingRight=4;overflow=hidden;rotatable=0;points=[[0,0.5],[1,0.5]];portConstraint=eastwest;fontColor=#1A1A1A;rounded=1;" vertex="1" parent="rWwStxESITLfcgc23Q9w-12">
          <mxGeometry y="26" width="160" height="26" as="geometry" />
        </mxCell>
        <mxCell id="rWwStxESITLfcgc23Q9w-14" value="Direccion" style="text;align=left;verticalAlign=top;spacingLeft=4;spacingRight=4;overflow=hidden;rotatable=0;points=[[0,0.5],[1,0.5]];portConstraint=eastwest;rounded=1;shadow=0;html=0;fontColor=#1A1A1A;" vertex="1" parent="rWwStxESITLfcgc23Q9w-12">
          <mxGeometry y="52" width="160" height="26" as="geometry" />
        </mxCell>
        <mxCell id="rWwStxESITLfcgc23Q9w-15" value="Telefono" style="text;align=left;verticalAlign=top;spacingLeft=4;spacingRight=4;overflow=hidden;rotatable=0;points=[[0,0.5],[1,0.5]];portConstraint=eastwest;fontColor=#1A1A1A;rounded=1;" vertex="1" parent="rWwStxESITLfcgc23Q9w-12">
          <mxGeometry y="78" width="160" height="26" as="geometry" />
        </mxCell>
        <mxCell id="rWwStxESITLfcgc23Q9w-16" value="id_organizacion" style="text;align=left;verticalAlign=top;spacingLeft=4;spacingRight=4;overflow=hidden;rotatable=0;points=[[0,0.5],[1,0.5]];portConstraint=eastwest;fontColor=#1A1A1A;rounded=1;" vertex="1" parent="rWwStxESITLfcgc23Q9w-12">
          <mxGeometry y="104" width="160" height="26" as="geometry" />
        </mxCell>
        <mxCell id="rWwStxESITLfcgc23Q9w-30" value="tipo: AU" style="text;align=left;verticalAlign=top;spacingLeft=4;spacingRight=4;overflow=hidden;rotatable=0;points=[[0,0.5],[1,0.5]];portConstraint=eastwest;fontColor=#1A1A1A;rounded=1;" vertex="1" parent="rWwStxESITLfcgc23Q9w-12">
          <mxGeometry y="130" width="160" height="26" as="geometry" />
        </mxCell>
        <mxCell id="rWwStxESITLfcgc23Q9w-17" value="Agencia de administradores" style="swimlane;fontStyle=0;align=center;verticalAlign=top;childLayout=stackLayout;horizontal=1;startSize=26;horizontalStack=0;resizeParent=1;resizeLast=0;collapsible=1;marginBottom=0;rounded=1;shadow=0;strokeWidth=1;fillColor=#F5AB50;strokeColor=#909090;fontColor=#1A1A1A;" vertex="1" parent="WIyWlLk6GJQsqaUBKTNV-1">
          <mxGeometry x="775" y="-640" width="160" height="164" as="geometry">
            <mxRectangle x="130" y="380" width="160" height="26" as="alternateBounds" />
          </mxGeometry>
        </mxCell>
        <mxCell id="rWwStxESITLfcgc23Q9w-18" value="Nombre de la Organizacion" style="text;align=left;verticalAlign=top;spacingLeft=4;spacingRight=4;overflow=hidden;rotatable=0;points=[[0,0.5],[1,0.5]];portConstraint=eastwest;fontColor=#1A1A1A;rounded=1;" vertex="1" parent="rWwStxESITLfcgc23Q9w-17">
          <mxGeometry y="26" width="160" height="26" as="geometry" />
        </mxCell>
        <mxCell id="rWwStxESITLfcgc23Q9w-19" value="Direccion" style="text;align=left;verticalAlign=top;spacingLeft=4;spacingRight=4;overflow=hidden;rotatable=0;points=[[0,0.5],[1,0.5]];portConstraint=eastwest;rounded=1;shadow=0;html=0;fontColor=#1A1A1A;" vertex="1" parent="rWwStxESITLfcgc23Q9w-17">
          <mxGeometry y="52" width="160" height="26" as="geometry" />
        </mxCell>
        <mxCell id="rWwStxESITLfcgc23Q9w-20" value="Telefono" style="text;align=left;verticalAlign=top;spacingLeft=4;spacingRight=4;overflow=hidden;rotatable=0;points=[[0,0.5],[1,0.5]];portConstraint=eastwest;fontColor=#1A1A1A;rounded=1;" vertex="1" parent="rWwStxESITLfcgc23Q9w-17">
          <mxGeometry y="78" width="160" height="26" as="geometry" />
        </mxCell>
        <mxCell id="rWwStxESITLfcgc23Q9w-21" value="id_organizacion" style="text;align=left;verticalAlign=top;spacingLeft=4;spacingRight=4;overflow=hidden;rotatable=0;points=[[0,0.5],[1,0.5]];portConstraint=eastwest;fontColor=#1A1A1A;rounded=1;" vertex="1" parent="rWwStxESITLfcgc23Q9w-17">
          <mxGeometry y="104" width="160" height="26" as="geometry" />
        </mxCell>
        <mxCell id="rWwStxESITLfcgc23Q9w-33" value="tipo: AD" style="text;align=left;verticalAlign=top;spacingLeft=4;spacingRight=4;overflow=hidden;rotatable=0;points=[[0,0.5],[1,0.5]];portConstraint=eastwest;fontColor=#1A1A1A;rounded=1;" vertex="1" parent="rWwStxESITLfcgc23Q9w-17">
          <mxGeometry y="130" width="160" height="26" as="geometry" />
        </mxCell>
        <mxCell id="rWwStxESITLfcgc23Q9w-25" value="" style="endArrow=classic;html=1;rounded=0;exitX=0.5;exitY=0;exitDx=0;exitDy=0;entryX=0;entryY=0.5;entryDx=0;entryDy=0;" edge="1" parent="WIyWlLk6GJQsqaUBKTNV-1" source="rWwStxESITLfcgc23Q9w-12" target="2DYvkXwkTkWKOow9lD2d-6">
          <mxGeometry width="50" height="50" relative="1" as="geometry">
            <mxPoint x="269" y="-637" as="sourcePoint" />
            <mxPoint x="443" y="-742" as="targetPoint" />
          </mxGeometry>
        </mxCell>
        <mxCell id="rWwStxESITLfcgc23Q9w-28" value="" style="endArrow=classic;html=1;rounded=0;entryX=0.75;entryY=1;entryDx=0;entryDy=0;exitX=0.5;exitY=0;exitDx=0;exitDy=0;" edge="1" parent="WIyWlLk6GJQsqaUBKTNV-1" source="rWwStxESITLfcgc23Q9w-7" target="2DYvkXwkTkWKOow9lD2d-0">
          <mxGeometry width="50" height="50" relative="1" as="geometry">
            <mxPoint x="649" y="-640" as="sourcePoint" />
            <mxPoint x="699" y="-690" as="targetPoint" />
          </mxGeometry>
        </mxCell>
        <mxCell id="rWwStxESITLfcgc23Q9w-29" value="" style="endArrow=classic;html=1;rounded=0;entryX=1;entryY=0.5;entryDx=0;entryDy=0;exitX=0.547;exitY=-0.012;exitDx=0;exitDy=0;exitPerimeter=0;" edge="1" parent="WIyWlLk6GJQsqaUBKTNV-1" source="rWwStxESITLfcgc23Q9w-17" target="2DYvkXwkTkWKOow9lD2d-6">
          <mxGeometry width="50" height="50" relative="1" as="geometry">
            <mxPoint x="849" y="-640" as="sourcePoint" />
            <mxPoint x="912" y="-690" as="targetPoint" />
          </mxGeometry>
        </mxCell>
        <mxCell id="rWwStxESITLfcgc23Q9w-34" value="" style="endArrow=classic;html=1;rounded=0;exitX=0;exitY=0.5;exitDx=0;exitDy=0;entryX=0.5;entryY=1;entryDx=0;entryDy=0;" edge="1" parent="WIyWlLk6GJQsqaUBKTNV-1" source="zkfFHV4jXpPFQw0GAbJ--7" target="rWwStxESITLfcgc23Q9w-12">
          <mxGeometry width="50" height="50" relative="1" as="geometry">
            <mxPoint x="348" y="-246" as="sourcePoint" />
            <mxPoint x="398" y="-296" as="targetPoint" />
          </mxGeometry>
        </mxCell>
        <mxCell id="rWwStxESITLfcgc23Q9w-35" value="" style="endArrow=classic;html=1;rounded=0;exitX=0.75;exitY=0;exitDx=0;exitDy=0;entryX=0.5;entryY=1;entryDx=0;entryDy=0;" edge="1" parent="WIyWlLk6GJQsqaUBKTNV-1" source="zkfFHV4jXpPFQw0GAbJ--6" target="rWwStxESITLfcgc23Q9w-7">
          <mxGeometry width="50" height="50" relative="1" as="geometry">
            <mxPoint x="458" y="-217" as="sourcePoint" />
            <mxPoint x="508" y="-267" as="targetPoint" />
          </mxGeometry>
        </mxCell>
        <mxCell id="rWwStxESITLfcgc23Q9w-37" value="" style="endArrow=classic;html=1;rounded=0;exitX=1;exitY=0.5;exitDx=0;exitDy=0;entryX=0.5;entryY=1;entryDx=0;entryDy=0;" edge="1" parent="WIyWlLk6GJQsqaUBKTNV-1" source="zkfFHV4jXpPFQw0GAbJ--7" target="rWwStxESITLfcgc23Q9w-17">
          <mxGeometry width="50" height="50" relative="1" as="geometry">
            <mxPoint x="639" y="-208" as="sourcePoint" />
            <mxPoint x="689" y="-258" as="targetPoint" />
          </mxGeometry>
        </mxCell>
        <mxCell id="rWwStxESITLfcgc23Q9w-43" value="Presupuesto" style="swimlane;fontStyle=0;align=center;verticalAlign=top;childLayout=stackLayout;horizontal=1;startSize=26;horizontalStack=0;resizeParent=1;resizeLast=0;collapsible=1;marginBottom=0;rounded=1;shadow=0;strokeWidth=1;fillColor=#F5AB50;strokeColor=#909090;fontColor=#1A1A1A;" vertex="1" parent="WIyWlLk6GJQsqaUBKTNV-1">
          <mxGeometry x="-1359" y="-790" width="199" height="345" as="geometry">
            <mxRectangle x="550" y="140" width="160" height="26" as="alternateBounds" />
          </mxGeometry>
        </mxCell>
        <mxCell id="rWwStxESITLfcgc23Q9w-44" value="id&#xa;&#xa;procedencia_pedido&#xa;&#xa;id_impuesto&#xa;&#xa;id_transporte&#xa;&#xa;id_almacenamiento&#xa;&#xa;total_impuestos&#xa;&#xa;sub_total&#xa;&#xa;total_servicios&#xa;&#xa;operacion&#xa;&#xa;TOTAL" style="text;align=left;verticalAlign=top;spacingLeft=4;spacingRight=4;overflow=hidden;rotatable=0;points=[[0,0.5],[1,0.5]];portConstraint=eastwest;fontColor=#1A1A1A;rounded=1;fontSize=13;" vertex="1" parent="rWwStxESITLfcgc23Q9w-43">
          <mxGeometry y="26" width="199" height="319" as="geometry" />
        </mxCell>
      </root>
    </mxGraphModel>
  </diagram>
</mxfile>
